<?xml version="1.0" encoding="UTF-8"?><svg id="_レイヤー_2" xmlns="http://www.w3.org/2000/svg" viewBox="0 0 25 24.38"><defs><style>.cls-1{fill:#ebe3e4;}</style></defs><g id="object"><path class="cls-1" d="M12.5,0C5.6,0,0,5.6,0,12.5c0,5.52,3.58,10.21,8.55,11.86,.62,.12,.85-.27,.85-.6,0-.3-.01-1.28-.02-2.33-3.48,.76-4.21-1.47-4.21-1.47-.57-1.44-1.39-1.83-1.39-1.83-1.13-.78,.09-.76,.09-.76,1.26,.09,1.92,1.29,1.92,1.29,1.11,1.91,2.92,1.36,3.64,1.04,.11-.81,.44-1.36,.79-1.67-2.78-.32-5.7-1.39-5.7-6.18,0-1.36,.49-2.48,1.29-3.36-.13-.31-.56-1.59,.12-3.31,0,0,1.05-.34,3.44,1.28,1-.28,2.07-.42,3.13-.42,1.06,0,2.13,.14,3.13,.42,2.39-1.62,3.43-1.28,3.43-1.28,.68,1.72,.25,2.99,.12,3.31,.8,.88,1.29,1.99,1.29,3.36,0,4.8-2.92,5.86-5.71,6.17,.45,.39,.85,1.15,.85,2.31,0,1.67-.01,3.02-.01,3.43,0,.33,.23,.72,.86,.6,4.96-1.65,8.54-6.34,8.54-11.86C25,5.6,19.4,0,12.5,0ZM4.68,17.81c-.03,.06-.13,.08-.21,.04-.09-.04-.14-.13-.11-.19,.03-.06,.12-.08,.22-.04,.09,.04,.14,.13,.11,.19Zm.61,.55c-.06,.06-.18,.03-.26-.06-.08-.09-.1-.2-.04-.26,.06-.06,.17-.03,.26,.06,.08,.09,.1,.2,.04,.26Zm.42,.7c-.08,.05-.2,0-.28-.11-.08-.11-.08-.24,0-.3,.08-.05,.2,0,.28,.1,.08,.11,.08,.25,0,.3Zm.71,.81c-.07,.08-.21,.06-.32-.05-.11-.1-.14-.24-.07-.32,.07-.08,.22-.05,.32,.05,.11,.1,.14,.24,.07,.32Zm.92,.27c-.03,.1-.17,.14-.31,.1-.14-.04-.23-.16-.21-.26,.03-.1,.17-.14,.31-.1,.14,.04,.23,.16,.2,.26Zm1.05,.12c0,.1-.12,.19-.27,.19-.15,0-.27-.08-.27-.18,0-.1,.12-.19,.27-.19,.15,0,.27,.08,.27,.18Zm1.03-.04c.02,.1-.09,.2-.23,.23-.15,.03-.28-.04-.3-.14-.02-.1,.09-.21,.23-.23,.15-.03,.28,.03,.3,.14Z"/></g></svg>