<?xml version="1.0" encoding="UTF-8"?><svg id="_レイヤー_2" xmlns="http://www.w3.org/2000/svg" viewBox="0 0 69.35 69.96"><defs><style>.cls-1{stroke-linecap:round;}.cls-1,.cls-2{fill:none;stroke:#646464;stroke-miterlimit:10;}.cls-2{stroke-width:2px;}</style></defs><g id="object"><line class="cls-1" x1="34.67" y1="1.28" x2="34.67" y2="8.21"/><line class="cls-1" x1="24.27" y1="2.94" x2="25.33" y2="6.24"/><line class="cls-1" x1="14.88" y1="7.77" x2="16.9" y2="10.57"/><line class="cls-1" x1="7.43" y1="15.28" x2="10.21" y2="17.32"/><line class="cls-1" x1="2.65" y1="24.76" x2="5.92" y2="25.83"/><line class="cls-1" x1="5.92" y1="44.69" x2="2.65" y2="45.76"/><line class="cls-1" x1="10.21" y1="53.19" x2="7.43" y2="55.23"/><line class="cls-1" x1="14.88" y1="62.75" x2="16.9" y2="59.94"/><line class="cls-1" x1="24.27" y1="67.57" x2="25.33" y2="64.28"/><line class="cls-1" x1="45.08" y1="67.57" x2="44.02" y2="64.28"/><line class="cls-1" x1="54.47" y1="62.75" x2="52.45" y2="59.94"/><line class="cls-1" x1="61.92" y1="55.23" x2="59.14" y2="53.19"/><line class="cls-1" x1="66.7" y1="45.76" x2="63.43" y2="44.69"/><line class="cls-1" x1="66.7" y1="24.76" x2="63.43" y2="25.83"/><line class="cls-1" x1="61.92" y1="15.28" x2="59.14" y2="17.32"/><line class="cls-1" x1="54.77" y1="7.22" x2="52.43" y2="10.46"/><line class="cls-1" x1="45.08" y1="2.94" x2="44.02" y2="6.24"/><line class="cls-1" x1="34.67" y1="62.3" x2="34.67" y2="69.24"/><line class="cls-1" x1="60.79" y1="34.98" x2="67.66" y2="34.98"/><line class="cls-1" x1="1.69" y1="34.98" x2="8.56" y2="34.98"/><ellipse class="cls-2" cx="34.67" cy="34.98" rx="33.67" ry="33.98"/></g></svg>