<?xml version="1.0" encoding="UTF-8"?><svg id="_レイヤー_2" xmlns="http://www.w3.org/2000/svg" viewBox="0 0 25 20.32"><defs><style>.cls-1{fill:#ebe3e4;}</style></defs><g id="object"><path class="cls-1" d="M25,2.41c-.92,.41-1.91,.68-2.95,.81,1.06-.63,1.87-1.64,2.26-2.84-.99,.59-2.09,1.01-3.26,1.24-.94-1-2.27-1.62-3.74-1.62-2.83,0-5.13,2.3-5.13,5.13,0,.4,.05,.79,.13,1.17C8.05,6.08,4.27,4.04,1.74,.94c-.44,.76-.69,1.64-.69,2.58,0,1.78,.91,3.35,2.28,4.27-.84-.03-1.63-.26-2.32-.64,0,.02,0,.04,0,.06,0,2.49,1.77,4.56,4.11,5.03-.43,.12-.88,.18-1.35,.18-.33,0-.65-.03-.96-.09,.65,2.04,2.55,3.52,4.79,3.56-1.76,1.38-3.97,2.2-6.37,2.2-.41,0-.82-.02-1.22-.07,2.27,1.46,4.97,2.3,7.86,2.3,9.43,0,14.59-7.82,14.59-14.59,0-.22,0-.44-.01-.66,1-.72,1.87-1.63,2.56-2.66"/></g></svg>