<?xml version="1.0" encoding="UTF-8"?><svg id="_レイヤー_2" xmlns="http://www.w3.org/2000/svg" viewBox="0 0 25 25"><defs><style>.cls-1{fill:#ebe3e4;}</style></defs><g id="object"><path class="cls-1" d="M12.46,0h.02s.04,0,.04,0h.03s.03,0,.03,0h0c.21,.01,.4,.08,.57,.19l11.3,7.5c.12,.07,.22,.17,.31,.29l.02,.03h0l.02,.02c.13,.2,.2,.43,.2,.65v7.6c0,.22-.05,.44-.18,.64v.02h-.01v.02h-.01c-.09,.13-.19,.23-.31,.32l-11.32,7.51c-.17,.12-.37,.19-.59,.2h-.05s-.03,0-.03,0h-.05s-.03,0-.03,0h0c-.21-.01-.41-.09-.58-.2L.55,17.31c-.1-.06-.19-.14-.27-.24h0s-.05-.06-.07-.1h0C.06,16.76,0,16.53,0,16.29v-7.58c0-.2,.04-.4,.14-.58l.02-.04H.17v-.02h0s.04-.06,.07-.1c.09-.12,.19-.21,.31-.28L11.83,.21c.16-.11,.34-.18,.55-.2h.04s.03,0,.03,0h0ZM6.84,13.93l-3.53,2.37,8,5.31v-4.67l-4.48-3.01Zm11.32,0l-4.48,3.01v4.67l8-5.31-3.53-2.37Zm-5.66-3.81l-3.54,2.38,3.54,2.38,3.54-2.38-3.54-2.38Zm-10.13,.8v3.17l2.36-1.59-2.36-1.59Zm20.27,0l-2.35,1.58,2.35,1.58v-3.17ZM11.32,3.39L3.31,8.7l3.53,2.37,4.47-3.01V3.39Zm2.37,0v4.67l4.47,3.01,3.53-2.37L13.68,3.39Z"/></g></svg>